<?xml version="1.0" encoding="UTF-8" standalone="no"?>
<!DOCTYPE svg PUBLIC "-//W3C//DTD SVG 1.1//EN" "http://www.w3.org/Graphics/SVG/1.1/DTD/svg11.dtd">
<svg width="100%" height="100%" viewBox="0 0 513 513" version="1.1" xmlns="http://www.w3.org/2000/svg" xmlns:xlink="http://www.w3.org/1999/xlink" xml:space="preserve" xmlns:serif="http://www.serif.com/" style="fill-rule:evenodd;clip-rule:evenodd;stroke-linejoin:round;stroke-miterlimit:2;">
    <g transform="matrix(1,0,0,1,-582.378,0)">
        <g id="Page-2" serif:id="Page 2" transform="matrix(1,0,0,1,582.378,0)">
            <rect x="0" y="0" width="512" height="512" style="fill:none;"/>
            <clipPath id="_clip1">
                <rect x="0" y="0" width="512" height="512"/>
            </clipPath>
            <g clip-path="url(#_clip1)">
                <g id="Layer-1" serif:id="Layer 1">
                    <g transform="matrix(-1,0,0,1,514.835,-2.835)">
                        <rect x="2.835" y="2.835" width="512" height="512" style="fill:rgb(80,192,173);"/>
                    </g>
                    <g transform="matrix(1,0,0,1,155.04,172.861)">
                        <path d="M0,-98.433L0,266.261L-59.053,266.261L-59.053,-98.433C-58.884,-99.811 -58.191,-100.503 -56.983,-100.503L-2.07,-100.503C-0.693,-100.334 0,-99.641 0,-98.433ZM132.655,104.818C214.115,204.199 252.489,258.304 260.974,266.782L186.765,266.261L34.405,74.333L67.266,74.114C92.574,73.946 116.612,85.245 132.655,104.818" style="fill:white;fill-rule:nonzero;"/>
                    </g>
                    <g transform="matrix(1,0,0,1,191.987,68.6485)">
                        <path d="M0,167.896C14.385,167.896 28.771,167.948 43.156,167.881C52.978,167.834 63.136,165.492 72.58,162.933C81.939,160.398 91.073,157.04 99.859,152.938C116.989,144.94 132.798,134.119 146.475,121.068C159.585,108.558 170.784,93.963 179.073,77.831C186.934,62.53 192.166,45.783 193.537,28.598C194.14,21.047 193.993,13.434 193.034,5.918C193.034,5.918 192.273,-0.052 192.272,-0.05C177.467,14.628 144.475,21.21 123.682,26.869C109.818,30.643 95.846,34.085 81.847,37.412C52.915,44.286 28.359,52.551 8.41,72.242C-4.086,84.576 -38.891,120.954 -14.314,167.895C1.182,115.836 51.172,90.011 51.172,90.011C69.844,79.099 90.349,73.824 111.266,67.964C127.319,63.467 144.953,56.576 153.627,44.261C148.794,55.168 140.907,60.697 130.988,66.349C120.134,72.535 108.394,77.344 96.565,81.642C72.209,90.492 19.585,119.226 0,167.896" style="fill:white;fill-rule:nonzero;"/>
                    </g>
                </g>
            </g>
        </g>
    </g>
</svg>
