<?xml version="1.0" encoding="UTF-8" standalone="no"?>
<!DOCTYPE svg PUBLIC "-//W3C//DTD SVG 1.1//EN" "http://www.w3.org/Graphics/SVG/1.1/DTD/svg11.dtd">
<svg width="100%" height="100%" viewBox="0 0 66 14" version="1.1" xmlns="http://www.w3.org/2000/svg" xmlns:xlink="http://www.w3.org/1999/xlink" xml:space="preserve" xmlns:serif="http://www.serif.com/" style="fill-rule:evenodd;clip-rule:evenodd;stroke-linejoin:round;stroke-miterlimit:2;">
    <g transform="matrix(1,0,0,1,-1938.98,-9747.6)">
        <g transform="matrix(0.381603,0,0,0.422138,1873.69,7202.56)">
            <g transform="matrix(0.0798252,0,0,0.0760728,-37.7891,5949.13)">
                <g>
                    <g transform="matrix(5.55556,0,0,5.26981,2828.79,1053.44)">
                        <path d="M0,78.037C-2.559,77.938 -5.114,77.705 -7.646,77.3C-10,76.926 -12.331,76.403 -14.608,75.69C-16.75,75.022 -18.837,74.19 -20.83,73.163C-22.745,72.178 -24.569,71.014 -26.251,69.671C-27.922,68.339 -29.451,66.827 -30.807,65.175C-32.21,63.461 -33.421,61.594 -34.435,59.629C-37.132,54.415 -38.162,49.324 -38.162,43.503L-38.162,0.447C-38.162,0.149 -38.013,0 -37.718,0L-25.901,0C-25.602,0 -25.453,0.149 -25.453,0.447L-25.394,44.171C-24.014,58.312 -12.221,64.85 2.421,65.22L10.673,65.182L10.673,78.037L0,78.037Z" style="fill:rgb(72,196,176);fill-rule:nonzero;"/>
                    </g>
                    <g transform="matrix(5.55556,0,0,5.26981,3149.54,1464.76)">
                        <path d="M0,-78.098L2.076,-78.098C14.057,-78.098 24.431,-72.949 33.189,-62.655C38.567,-55.457 41.252,-48.076 41.252,-40.503L41.252,-37.37C41.252,-34.687 41.024,-33.343 40.56,-33.343L-26.275,-33.343L-26.275,-33.122C-24.584,-26.778 -21.664,-22.004 -17.516,-18.798C-12.139,-14.176 -6.148,-11.863 0.46,-11.863L1.616,-11.863C9.831,-11.863 17.052,-15.294 23.275,-22.156L37.105,-22.156C33.378,-13.653 26.463,-7.237 16.361,-2.913C11.368,-0.97 6.376,0 1.384,0L0.924,0C-13.33,0 -24.856,-6.416 -33.649,-19.244C-37.336,-25.809 -39.18,-32.45 -39.18,-39.16C-39.18,-52.774 -32.725,-63.888 -19.82,-72.503C-13.059,-76.231 -6.455,-78.098 0,-78.098M-26.275,-44.98C4.265,-44.831 22.544,-44.755 28.578,-44.755L28.578,-44.98C26.235,-52.774 22.316,-58.369 16.825,-61.762C11.754,-64.747 6.836,-66.235 2.076,-66.235L-0.232,-66.235C-8.644,-66.235 -16.019,-62.209 -22.355,-54.156C-24.124,-51.469 -25.43,-48.411 -26.275,-44.98" style="fill:rgb(72,196,176);fill-rule:nonzero;"/>
                    </g>
                    <g transform="matrix(5.55556,0,0,5.26981,3663.34,1464.74)">
                        <path d="M0,-78.094L0.908,-78.094C14.922,-78.094 26.282,-71.77 34.994,-59.121C36.696,-56.327 37.906,-53.755 38.626,-51.4L38.174,-51.182L24.993,-51.182C18.782,-60.739 10.602,-65.521 0.456,-65.521C-8.102,-65.521 -15.299,-62.064 -21.129,-55.152C-24.918,-50.297 -26.809,-44.93 -26.809,-39.049C-26.809,-28.568 -21.51,-20.48 -10.904,-14.782C-6.856,-13.309 -3.294,-12.573 -0.228,-12.573L1.136,-12.573C11.4,-12.573 19.58,-17.794 25.673,-28.236L38.626,-28.236C38.928,-28.202 39.082,-28.053 39.082,-27.797C36.507,-19.965 32.187,-13.714 26.129,-9.042C18.594,-3.011 10.488,0 1.816,0L-0.908,0C-12.155,0 -22.151,-4.855 -30.901,-14.561C-36.806,-21.874 -39.762,-29.893 -39.762,-38.606L-39.762,-39.488C-39.762,-53.461 -32.871,-64.709 -19.085,-73.243C-12.839,-76.475 -6.474,-78.094 0,-78.094" style="fill:rgb(72,196,176);fill-rule:nonzero;"/>
                    </g>
                    <g transform="matrix(5.55556,0,0,5.26981,4554.97,1464.74)">
                        <path d="M0,-78.094L1.364,-78.094C10.944,-78.094 19.879,-74.636 28.173,-67.724L28.173,-77.651C28.213,-77.945 28.362,-78.094 28.629,-78.094L40.67,-78.094C40.972,-78.056 41.126,-77.91 41.126,-77.651L41.126,-0.439C41.126,-0.145 40.972,0 40.67,0L28.629,0C28.323,0 28.173,-0.145 28.173,-0.439L28.173,-10.366C19.957,-3.454 11.325,0 2.272,0L-1.136,0C-11.019,0 -20.488,-4.412 -29.537,-13.236C-36.051,-21.213 -39.306,-29.595 -39.306,-38.385L-39.306,-39.488C-39.306,-51.915 -33.704,-62.358 -22.493,-70.815C-15.299,-75.667 -7.803,-78.094 0,-78.094M-26.357,-39.709L-26.357,-38.385C-26.357,-29.118 -21.738,-21.618 -12.497,-15.885C-8.294,-13.675 -4.281,-12.573 -0.456,-12.573L1.816,-12.573C10.036,-12.573 17.08,-16.252 22.949,-23.603C26.282,-28.309 27.945,-33.164 27.945,-38.163L27.945,-39.931C27.945,-49.709 22.646,-57.503 12.041,-63.315C8.066,-64.785 4.43,-65.518 1.136,-65.518L0.452,-65.518C-6.474,-65.518 -12.685,-63.018 -18.177,-58.018C-23.629,-52.503 -26.357,-46.4 -26.357,-39.709" style="fill:rgb(72,196,176);fill-rule:nonzero;"/>
                    </g>
                    <g transform="matrix(5.55556,0,0,5.26981,4174.47,1238.89)">
                        <path d="M0,9.229C17.862,30.389 26.279,41.912 28.138,43.717L11.864,43.606L-21.55,2.737L-14.34,2.691C-8.79,2.657 -3.518,5.061 0,9.229M-29.093,-34.049L-29.093,43.606L-42.042,43.606L-42.042,-34.049C-42.006,-34.343 -41.853,-34.488 -41.59,-34.488L-29.549,-34.488C-29.246,-34.453 -29.093,-34.304 -29.093,-34.049" style="fill:rgb(72,196,176);fill-rule:nonzero;"/>
                    </g>
                    <g transform="matrix(5.55556,0,0,5.26981,4057.86,1048.74)">
                        <path d="M0,35.75C3.156,35.75 6.309,35.762 9.466,35.746C11.62,35.739 13.845,35.239 15.917,34.693C17.968,34.155 19.973,33.437 21.899,32.567C25.657,30.861 29.125,28.559 32.124,25.781C34.997,23.117 37.454,20.006 39.27,16.571C40.996,13.315 42.144,9.751 42.443,6.09C42.576,4.484 42.545,2.862 42.333,1.262C42.333,1.262 42.168,-0.012 42.168,-0.009C38.921,3.114 31.684,4.518 27.124,5.72C24.085,6.526 21.019,7.258 17.949,7.965C11.604,9.43 6.219,11.189 1.844,15.384C-0.896,18.01 -8.53,25.754 -3.141,35.75C0.259,24.667 11.223,19.167 11.223,19.167C15.319,16.842 19.812,15.72 24.4,14.472C27.922,13.514 31.79,12.048 33.692,9.426C32.631,11.747 30.901,12.926 28.728,14.129C26.345,15.445 23.771,16.468 21.176,17.384C15.834,19.27 4.297,25.388 0,35.75" style="fill:rgb(72,196,176);fill-rule:nonzero;"/>
                    </g>
                </g>
            </g>
        </g>
    </g>
</svg>
